<svg xmlns="http://www.w3.org/2000/svg" xmlns:xlink="http://www.w3.org/1999/xlink" viewBox="0 0 430 430" width="430" height="430" preserveAspectRatio="xMidYMid meet" style="width: 100%; height: 100%; transform: translate3d(0px, 0px, 0px); content-visibility: visible;"><defs><clipPath id="__lottie_element_51"><rect width="430" height="430" x="0" y="0"/></clipPath><clipPath id="__lottie_element_53"><path d="M0,0 L430,0 L430,430 L0,430z"/></clipPath></defs><g clip-path="url(#__lottie_element_51)"><g clip-path="url(#__lottie_element_53)" transform="matrix(1,0,0,1,0,0)" opacity="1" style="display: block;"><g transform="matrix(1,0,0,1,132.08200073242188,215)" opacity="1" style="display: block;"><path class="quaternary" fill="rgb(178,104,54)" fill-opacity="1" d=" M132.433837890625,-163.95626831054688 C132.433837890625,-163.95626831054688 38.139686584472656,-164.0181427001953 38.139686584472656,-164.0181427001953 C38.139686584472656,-164.0181427001953 -82.22557067871094,-83.95858764648438 -82.22557067871094,-83.95858764648438 C-82.22557067871094,-83.95858764648438 -82.22557067871094,159.56185913085938 -82.22557067871094,159.56185913085938 C-82.22557067871094,159.56185913085938 16.874858856201172,159.70472717285156 16.874858856201172,159.70472717285156 M16.71185874938965,-83.40965270996094 C16.71185874938965,-83.40965270996094 -81.40864562988281,-83.47151184082031 -81.40864562988281,-83.47151184082031"/><path class="quaternary" fill="rgb(178,104,54)" fill-opacity="1" d=" M132.433837890625,-163.95626831054688 C132.433837890625,-163.95626831054688 38.139686584472656,-164.0181427001953 38.139686584472656,-164.0181427001953 C38.139686584472656,-164.0181427001953 -82.22557067871094,-83.95858764648438 -82.22557067871094,-83.95858764648438 C-82.22557067871094,-83.95858764648438 -82.22557067871094,159.56185913085938 -82.22557067871094,159.56185913085938 C-82.22557067871094,159.56185913085938 16.874858856201172,159.70472717285156 16.874858856201172,159.70472717285156 M16.71185874938965,-83.40965270996094 C16.71185874938965,-83.40965270996094 -81.40864562988281,-83.47151184082031 -81.40864562988281,-83.47151184082031" style="mix-blend-mode: multiply;"/><g opacity="1" transform="matrix(1,0,0,1,0,0)"/></g><g transform="matrix(1,0,0,1,132.08200073242188,215)" opacity="1" style="display: block;"><path class="tertiary" fill="rgb(58,51,71)" fill-opacity="1" d=" M132.433837890625,-163.95626831054688 C132.433837890625,-163.95626831054688 38.139686584472656,-164.0181427001953 38.139686584472656,-164.0181427001953 C38.139686584472656,-164.0181427001953 -82.22557067871094,-83.95858764648438 -82.22557067871094,-83.95858764648438 C-82.22557067871094,-83.95858764648438 -82.15167236328125,-83.4381332397461 -82.15167236328125,-83.4381332397461 C-82.15167236328125,-83.4381332397461 16.94976043701172,-83.29527282714844 16.94976043701172,-83.29527282714844"/><g opacity="1" transform="matrix(1,0,0,1,0,0)"/></g><g transform="matrix(1,0,0,1,0,-1.875)" opacity="1" style="display: block;"><g opacity="1" transform="matrix(1,0,0,1,215,214.61399841308594)"><path class="quaternary" fill="rgb(178,104,54)" fill-opacity="1" d=" M167.06687927246094,-80.2040023803711 C167.06687927246094,-80.2040023803711 167.07240295410156,159.28182983398438 167.07240295410156,159.28182983398438 C167.07240295410156,160.0778350830078 166.80738830566406,160.8402862548828 166.33714294433594,161.40283203125 C165.8673553466797,161.9658203125 165.2296600341797,162.28182983398438 164.56382751464844,162.28182983398438 C164.56382751464844,162.28182983398438 -64.70301055908203,162.28182983398438 -64.70301055908203,162.28182983398438 C-65.36829376220703,162.28182983398438 -66.00598907470703,161.9658203125 -66.4767837524414,161.40283203125 C-66.94757080078125,160.8408203125 -67.21158599853516,160.0778350830078 -67.21158599853516,159.28182983398438 C-67.21158599853516,159.28182983398438 -67.21710968017578,-80.21399688720703 -67.21710968017578,-80.21399688720703 C-67.2166519165039,-80.74199676513672 -67.09943389892578,-81.26000213623047 -66.87782287597656,-81.71700286865234 C-66.65621948242188,-82.1729965209961 -66.33759307861328,-82.552001953125 -65.95445251464844,-82.81400299072266 C-65.95445251464844,-82.81400299072266 48.20254135131836,-161.16400146484375 48.20254135131836,-161.16400146484375 C48.58368682861328,-161.427001953125 49.01607131958008,-161.5659942626953 49.456825256347656,-161.5659942626953 C49.8975830078125,-161.5659942626953 50.32996368408203,-161.427001953125 50.71110916137695,-161.16400146484375 C50.71110916137695,-161.16400146484375 165.80421447753906,-82.81400299072266 165.80421447753906,-82.81400299072266 C166.18882751464844,-82.5510025024414 166.5074462890625,-82.1709976196289 166.7300567626953,-81.71199798583984 C166.95166015625,-81.25399780273438 167.06788635253906,-80.73400115966797 167.06687927246094,-80.2040023803711z"/></g><g opacity="0.5" transform="matrix(1,0,0,1,215.0050048828125,214.61399841308594)" style="mix-blend-mode: multiply;"><path class="quaternary" fill="rgb(178,104,54)" fill-opacity="1" d=" M167.07025146484375,0.9860000014305115 C167.07025146484375,0.9860000014305115 167.07025146484375,81.88600158691406 167.07025146484375,81.88600158691406 C167.07025146484375,81.88600158691406 -43.99919128417969,81.88600158691406 -43.99919128417969,81.88600158691406 C-44.665008544921875,81.88600158691406 -45.302711486816406,82.20254516601562 -45.77304458618164,82.76499938964844 C-46.243831634521484,83.3270034790039 -46.508304595947266,84.08999633789062 -46.508304595947266,84.88600158691406 C-46.508304595947266,84.88600158691406 -46.50323486328125,162.28182983398438 -46.50323486328125,162.28182983398438 C-46.50323486328125,162.28182983398438 -64.7084732055664,162.28182983398438 -64.7084732055664,162.28182983398438 C-65.37374877929688,162.28182983398438 -66.01099395751953,161.9658203125 -66.48178100585938,161.40283203125 C-66.95256805419922,160.8408203125 -67.217041015625,160.0778350830078 -67.217041015625,159.28182983398438 C-67.217041015625,159.28182983398438 -67.22210693359375,-80.21399688720703 -67.22210693359375,-80.21399688720703 C-67.22164916992188,-80.74199676513672 -67.10443115234375,-81.26000213623047 -66.88282775878906,-81.71700286865234 C-66.66121673583984,-82.1729965209961 -66.34259796142578,-82.552001953125 -65.9594497680664,-82.81400299072266 C-65.9594497680664,-82.81400299072266 48.197540283203125,-161.16400146484375 48.197540283203125,-161.16400146484375 C48.57868576049805,-161.427001953125 49.011070251464844,-161.5659942626953 49.45182418823242,-161.5659942626953 C49.892581939697266,-161.5659942626953 50.3249626159668,-161.427001953125 50.706111907958984,-161.16400146484375 C50.706111907958984,-161.16400146484375 59.90474319458008,-154.9340057373047 59.90474319458008,-154.9340057373047 C59.90474319458008,-154.9340057373047 -45.24510192871094,-82.81400299072266 -45.24510192871094,-82.81400299072266 C-45.62825012207031,-82.552001953125 -45.94687271118164,-82.1729965209961 -46.16847610473633,-81.71700286865234 C-46.39008331298828,-81.26000213623047 -46.50784683227539,-80.74199676513672 -46.508304595947266,-80.21399688720703 C-46.508304595947266,-80.21399688720703 -46.508304595947266,-2.0139999389648438 -46.508304595947266,-2.0139999389648438 C-46.508304595947266,-1.218000054359436 -46.243289947509766,-0.4555424153804779 -45.77304458618164,0.10700000077486038 C-45.303253173828125,0.6700000166893005 -44.665008544921875,0.9860000014305115 -43.99919128417969,0.9860000014305115 C-43.99919128417969,0.9860000014305115 167.07025146484375,0.9860000014305115 167.07025146484375,0.9860000014305115z"/></g></g><g transform="matrix(1,0,0,1,-35,-34.99998474121094)" opacity="1" style="display: block;"><g opacity="1" transform="matrix(1,0,0,1,250.00100708007812,173.8159942626953)"><g opacity="1" transform="matrix(1,0,0,1,0,0)"><path stroke-linecap="butt" stroke-linejoin="miter" fill-opacity="0" stroke-miterlimit="4" class="secondary" stroke="rgb(235,230,239)" stroke-opacity="1" stroke-width="2" d="M0 0"/></g><path class="secondary" fill="rgb(235,230,239)" fill-opacity="1" d=" M33.65202713012695,10.023653030395508 C38.10520935058594,22.94065284729004 45.115020751953125,9.422652244567871 52.036869049072266,9.422652244567871 C59.19661331176758,9.422652244567871 66.73638153076172,23.59665298461914 70.42170715332031,10.023653030395508 C73.39970397949219,-0.9453473091125488 66.73638153076172,-16.020347595214844 52.036869049072266,-16.020347595214844 C38.10520935058594,-16.020347595214844 29.97751235961914,-0.635347306728363 33.65202713012695,10.023653030395508z"/></g><g opacity="1" transform="matrix(1,0,0,1,250.87600708007812,172.4409942626953)"><g opacity="1" transform="matrix(1,0,0,1,0,0)"><path stroke-linecap="butt" stroke-linejoin="miter" fill-opacity="0" stroke-miterlimit="4" class="secondary" stroke="rgb(235,230,239)" stroke-opacity="1" stroke-width="2" d="M0 0"/></g><path class="secondary" fill="rgb(235,230,239)" fill-opacity="0.5" d=" M38.28377151489258,11.392736434936523 C39.38377380371094,14.052736282348633 39.76995086669922,15.012225151062012 41.09994888305664,15.772224426269531 C37.78982162475586,17.901771545410156 35.7602653503418,19.22066879272461 32.833229064941406,11.392736434936523 C29.013031005859375,1.4067203998565674 37.22991943359375,-14.555591583251953 50.83051300048828,-14.588935852050781 C51.76051330566406,-14.591669082641602 52.66051483154297,-14.548935890197754 53.54051208496094,-14.4689359664917 C42.69804763793945,-12.053667068481445 34.1037712097168,1.292736530303955 38.28377151489258,11.392736434936523z" style="mix-blend-mode: multiply;"/></g></g><g transform="matrix(1,0,0,1,-35,-37.5)" opacity="1" style="display: block;"><g opacity="1" transform="matrix(1,0,0,1,250,314.84100341796875)"><path class="tertiary" fill="rgb(58,51,71)" fill-opacity="1" d=" M111.97172546386719,-23.40181541442871 C111.97172546386719,-23.40181541442871 111.97172546386719,96.66873168945312 111.97172546386719,96.66873168945312 C111.97172546386719,96.66873168945312 -8.796977996826172,96.69989013671875 -8.796977996826172,96.69989013671875 C-8.796977996826172,96.69989013671875 -8.796977996826172,-23.3701114654541 -8.796977996826172,-23.3701114654541 C-8.796977996826172,-38.90011215209961 -5.351858139038086,-54.72499084472656 2.9481418132781982,-66.52499389648438 C16.08814239501953,-85.20499420166016 28.932653427124023,-95.03227233886719 51.319061279296875,-95.49635314941406 C71.29363250732422,-96.7781753540039 85.23902130126953,-83.96691131591797 92.50775909423828,-76.55714416503906 C95.3830337524414,-73.51679229736328 98.07171630859375,-69.80975341796875 100.46110534667969,-65.77557373046875 C106.4166488647461,-56.81909942626953 111.97172546386719,-38.93181610107422 111.97172546386719,-23.40181541442871z"/></g><g opacity="0.5" transform="matrix(1,0,0,1,218.74899291992188,314.84100341796875)" style="mix-blend-mode: multiply;"><path class="tertiary" fill="rgb(58,51,71)" fill-opacity="1" d=" M91.85413360595703,-94.72802734375 C76.88349151611328,-91.04037475585938 62.99611282348633,-81.14332580566406 54.383140563964844,-66.52499389648438 C47.23323440551758,-54.053741455078125 42.638023376464844,-38.90011215209961 42.638023376464844,-23.3701114654541 C42.638023376464844,-23.3701114654541 42.638023376464844,96.69989013671875 42.638023376464844,96.69989013671875 C42.638023376464844,96.69989013671875 22.458023071289062,96.69989013671875 22.458023071289062,96.69989013671875 C22.458023071289062,96.69989013671875 22.458023071289062,-23.3701114654541 22.458023071289062,-23.3701114654541 C22.458023071289062,-38.90011215209961 25.903141021728516,-54.72499084472656 34.20314025878906,-66.52499389648438 C47.343143463134766,-85.20499420166016 60.151031494140625,-95.03227233886719 82.57406616210938,-95.49635314941406 C85.99149322509766,-95.71117401123047 88.55413055419922,-95.18802642822266 91.85413360595703,-94.72802734375z"/></g></g><g transform="matrix(1,0,0,1,-35,-35)" opacity="1" style="display: block;"><g opacity="1" transform="matrix(1,0,0,1,250,247.67100524902344)"><path stroke-linecap="round" stroke-linejoin="round" fill-opacity="0" class="primary" stroke="rgb(18,19,49)" stroke-opacity="1" stroke-width="7" d=" M167.4120635986328,-81.73100280761719 C167.4120635986328,-81.73100280761719 49.823219299316406,-161.7899932861328 49.823219299316406,-161.7899932861328 C49.823219299316406,-161.7899932861328 -66.78948974609375,-81.73100280761719 -66.78948974609375,-81.73100280761719 C-66.78948974609375,-81.73100280761719 -66.78948974609375,161.7899932861328 -66.78948974609375,161.7899932861328 C-66.78948974609375,161.7899932861328 167.4120635986328,161.7899932861328 167.4120635986328,161.7899932861328 C167.4120635986328,161.7899932861328 167.4120635986328,-81.73100280761719 167.4120635986328,-81.73100280761719z"/></g></g><g transform="matrix(1,0,0,1,132.08200073242188,215)" opacity="1" style="display: block;"><g opacity="1" transform="matrix(1,0,0,1,0,0)"><path stroke-linecap="round" stroke-linejoin="round" fill-opacity="0" class="primary" stroke="rgb(18,19,49)" stroke-opacity="1" stroke-width="7" d=" M132.433837890625,-163.95626831054688 C132.433837890625,-163.95626831054688 38.139686584472656,-164.0181427001953 38.139686584472656,-164.0181427001953 C38.139686584472656,-164.0181427001953 -82.22557067871094,-83.95858764648438 -82.22557067871094,-83.95858764648438 C-82.22557067871094,-83.95858764648438 -82.22557067871094,159.56185913085938 -82.22557067871094,159.56185913085938 C-82.22557067871094,159.56185913085938 16.874858856201172,159.70472717285156 16.874858856201172,159.70472717285156 M16.71185874938965,-83.40965270996094 C16.71185874938965,-83.40965270996094 -81.40864562988281,-83.47151184082031 -81.40864562988281,-83.47151184082031"/></g></g><g transform="matrix(1,0,0,1,-35,-34.99998474121094)" opacity="1" style="display: block;"><g opacity="1" transform="matrix(1,0,0,1,250,313.1189880371094)"><path stroke-linecap="round" stroke-linejoin="round" fill-opacity="0" class="primary" stroke="rgb(18,19,49)" stroke-opacity="1" stroke-width="7" d=" M2.002393960952759,-65.48042297363281 C2.002393960952759,-65.48042297363281 -65.15098571777344,-65.48042297363281 -65.15098571777344,-65.48042297363281 M166.2602996826172,-65.48042297363281 C166.2602996826172,-65.48042297363281 100.98030090332031,-65.48042297363281 100.98030090332031,-65.48042297363281 M-8.971989631652832,15.419575691223145 C-8.971989631652832,15.419575691223145 -65.15098571777344,15.419575691223145 -65.15098571777344,15.419575691223145 M166.2602996826172,15.419575691223145 C166.2602996826172,15.419575691223145 111.9546890258789,15.419575691223145 111.9546890258789,15.419575691223145 M-8.971989631652832,94.0635757446289 C-8.971989631652832,94.0635757446289 -8.971989631652832,-23.756423950195312 -8.971989631652832,-23.756423950195312 C-8.971989631652832,-63.86042404174805 18.09803581237793,-96.37042236328125 51.490623474121094,-96.37042236328125 C51.490623474121094,-96.37042236328125 51.490623474121094,-96.37042236328125 51.490623474121094,-96.37042236328125 C84.88320922851562,-96.37042236328125 111.95323181152344,-63.86042404174805 111.95323181152344,-23.756423950195312 C111.95323181152344,-23.756423950195312 111.95323181152344,94.0635757446289 111.95323181152344,94.0635757446289"/></g><g opacity="1" transform="matrix(1,0,0,1,0,0)"><g opacity="1" transform="matrix(1,0,0,1,250.00100708007812,173.8159942626953)"><path stroke-linecap="round" stroke-linejoin="round" fill-opacity="0" class="primary" stroke="rgb(18,19,49)" stroke-opacity="1" stroke-width="7" d=" M33.65202713012695,10.023653030395508 C38.10520935058594,22.94065284729004 45.115020751953125,9.422652244567871 52.036869049072266,9.422652244567871 C59.19661331176758,9.422652244567871 66.73638153076172,23.59665298461914 70.42170715332031,10.023653030395508 C73.39970397949219,-0.9453473091125488 66.73638153076172,-16.020347595214844 52.036869049072266,-16.020347595214844 C38.10520935058594,-16.020347595214844 29.97751235961914,-0.635347306728363 33.65202713012695,10.023653030395508z"/></g><g opacity="1" transform="matrix(1,0,0,1,275.9330139160156,145.3679962158203)"><path stroke-linecap="round" stroke-linejoin="round" fill-opacity="0" class="primary" stroke="rgb(18,19,49)" stroke-opacity="1" stroke-width="12" d=" M25.553714752197266,-10.5944242477417 C25.553714752197266,-10.5944242477417 25.5615291595459,-10.5944242477417 25.5615291595459,-10.5944242477417 M3.9603402614593506,0.9315757155418396 C3.9603402614593506,0.9315757155418396 3.968153953552246,0.9315757155418396 3.968153953552246,0.9315757155418396 M47.146541595458984,-0.028424302116036415 C47.146541595458984,-0.028424302116036415 47.154903411865234,-0.028424302116036415 47.154903411865234,-0.028424302116036415"/></g></g></g></g></g></svg>